<?xml version="1.0" encoding="UTF-8"?>
<svg version="1.1" xmlns="http://www.w3.org/2000/svg" width="3508" height="2481">
<path d="M0 0 C21.78 0 43.56 0 66 0 C72.89389371 32.17150399 72.89389371 32.17150399 75.12792969 43.48852539 C75.39139778 44.81472762 75.6550515 46.14089299 75.91886902 47.46702576 C76.61268643 50.95735327 77.30395237 54.44818091 77.99458599 57.9391396 C78.72752983 61.641719 79.46284049 65.34382851 80.19781494 69.04600525 C81.42612113 75.2348941 82.65283378 81.42409696 83.87841797 87.61352539 C85.28882699 94.73630274 86.70136062 101.85865613 88.11509585 108.98077399 C89.63575829 116.64161901 91.15507325 124.30273078 92.67389774 131.96394038 C93.10631232 134.14471042 93.53895433 136.32543524 93.97164154 138.5061512 C94.77872228 142.57428152 95.58427005 146.64271396 96.38964844 150.71118164 C96.62550156 151.89934479 96.86135468 153.08750793 97.10435486 154.31167603 C98.46582393 161.19703914 99.76801449 168.09026945 101 175 C104.79819831 161.67824168 108.21788972 148.28541043 111.5 134.828125 C112.01833819 132.71144905 112.53689827 130.59482742 113.05566406 128.47825623 C114.42587769 122.8845481 115.79253573 117.28997709 117.15844727 111.69521713 C118.2848051 107.08404169 119.41359239 102.47346237 120.5423584 97.86287594 C125.56308153 77.35321132 130.5759779 56.8417218 135.5 36.30859375 C135.73851181 35.31449053 135.73851181 35.31449053 135.98184204 34.30030441 C137.51560028 27.90622811 139.04270635 21.51064107 140.55859375 15.11230469 C140.79449219 14.12214859 141.03039063 13.13199249 141.2734375 12.11183167 C141.69966007 10.32262726 142.12308359 8.53275242 142.54296875 6.74205017 C143.88720604 1.11279396 143.88720604 1.11279396 145 0 C147.08619022 -0.09417773 149.17560477 -0.11742878 151.26391602 -0.11352539 C152.2443689 -0.11374443 152.2443689 -0.11374443 153.24462891 -0.1139679 C155.41442128 -0.11326883 157.58412879 -0.10547678 159.75390625 -0.09765625 C161.25463311 -0.09579205 162.75536057 -0.09436816 164.25608826 -0.09336853 C168.21318226 -0.08954352 172.17023978 -0.0797134 176.12731934 -0.06866455 C180.16234849 -0.05845006 184.19738353 -0.05387083 188.23242188 -0.04882812 C196.15496469 -0.03809111 204.07747781 -0.0210149 212 0 C213.35458659 3.92383335 214.50217273 7.82150914 215.45294189 11.86151123 C215.72468735 13.01016663 215.9964328 14.15882202 216.27641296 15.34228516 C216.56837051 16.58896973 216.86032806 17.8356543 217.16113281 19.12011719 C217.47657519 20.45816532 217.79226062 21.79615618 218.10816956 23.13409424 C218.96424266 26.76288057 219.81687326 30.39246789 220.66885853 34.02221584 C221.56765225 37.84886318 222.46952711 41.67478428 223.37103271 45.50079346 C224.88932525 51.94638769 226.40557915 58.3924586 227.92041016 64.83886719 C230.0349365 73.83727322 232.15325282 82.83478378 234.27229166 91.83212805 C235.75864578 98.14379859 237.24404847 104.4556931 238.72929287 110.76762486 C239.08411547 112.27551411 239.43896392 113.78339728 239.79383945 115.29127407 C241.9020157 124.24926203 244.0056088 133.20829973 246.102005 142.16905212 C247.00219084 146.00934637 247.90813224 149.8482546 248.81433105 153.68713379 C249.37093419 156.06122132 249.92730262 158.4353639 250.48339844 160.80957031 C250.73990299 161.88968761 250.99640755 162.96980492 251.26068497 164.08265305 C251.60655466 165.56652952 251.60655466 165.56652952 251.95941162 167.0803833 C252.2626214 168.36824171 252.2626214 168.36824171 252.57195663 169.68211746 C253 172 253 172 253 176 C253.66 176 254.32 176 255 176 C255.10050659 174.68548355 255.20101318 173.3709671 255.30456543 172.01661682 C256.06243726 164.49861065 257.63531249 157.13252755 259.12695312 149.73413086 C259.4509975 148.10876304 259.77463022 146.4833131 260.09788513 144.85778809 C260.97151976 140.47119229 261.85115135 136.08581944 262.73212242 131.70069194 C263.65421057 127.10668996 264.57143112 122.51171589 265.48937988 117.91688538 C267.02941075 110.21221989 268.57334759 102.50834497 270.11962891 94.80493164 C271.90906989 85.8898723 273.6922968 76.97358694 275.47224665 68.05662817 C277.18529634 59.47554705 278.90267301 50.89533752 280.62205505 42.31552315 C281.35391661 38.6631 282.08424925 35.010376 282.81336975 31.35740471 C283.67005145 27.06636475 284.53050328 22.7760981 285.39393806 18.48641205 C285.71092344 16.90839926 286.02658639 15.3301202 286.34086418 13.75156593 C286.76825695 11.6059809 287.20032687 9.46139182 287.63366699 7.31700134 C287.87479973 6.11414458 288.11593246 4.91128782 288.36437225 3.67198086 C289 1 289 1 290 0 C292.05556661 -0.09413687 294.11440181 -0.11742998 296.17211914 -0.11352539 C297.13794167 -0.11374443 297.13794167 -0.11374443 298.12327576 -0.1139679 C300.26060303 -0.11326885 302.39784413 -0.10547691 304.53515625 -0.09765625 C306.01346285 -0.09579204 307.49177007 -0.09436815 308.97007751 -0.09336853 C312.86798802 -0.08954359 316.76586149 -0.07971352 320.66375732 -0.06866455 C324.63846333 -0.05844992 328.61317529 -0.0538708 332.58789062 -0.04882812 C340.391944 -0.03809122 348.19596682 -0.02101509 356 0 C349.18459087 27.48691475 342.21226949 54.92660715 335.01707077 82.31648636 C333.79727401 86.96235217 332.58047416 91.60900275 331.36352539 96.25561523 C330.85716804 98.18889001 330.35080509 100.12216331 329.84443665 102.05543518 C329.59099298 103.02306856 329.33754932 103.99070194 329.07642555 104.98765755 C328.30312834 107.93954548 327.52950201 110.89134697 326.75578308 113.84312439 C321.05956756 135.57629468 315.39003987 157.31641821 309.72127914 179.0567627 C308.69423947 182.99538685 307.66700298 186.93395967 306.63972759 190.87252235 C306.14621742 192.76464608 305.65272814 194.65677526 305.15926075 196.54891014 C303.99587195 201.0097237 302.8322362 205.47047249 301.66798401 209.93106079 C299.77997201 217.16571333 297.89425522 224.40089009 296.02392578 231.64013672 C295.73965225 232.73813095 295.45537872 233.83612518 295.16249084 234.96739197 C294.66093602 236.90599568 294.16112587 238.84505214 293.66355896 240.78468323 C292.11172139 246.77655722 292.11172139 246.77655722 291 249 C266.58 249 242.16 249 217 249 C214.74997306 242.24991919 214.74997306 242.24991919 213.98052979 239.10015869 C213.80451516 238.38491594 213.62850054 237.66967319 213.44715214 236.93275642 C213.16828742 235.78316602 213.16828742 235.78316602 212.88378906 234.61035156 C212.6814009 233.78475676 212.47901274 232.95916195 212.2704916 232.10854912 C211.59978324 229.36982655 210.93267885 226.63023976 210.265625 223.890625 C209.79063049 221.94753212 209.31543193 220.00448912 208.84004211 218.06149292 C207.5692276 212.8644866 206.30164073 207.66669811 205.03477859 202.46872711 C203.99052702 198.18578554 202.94441739 193.9032987 201.89832783 189.62080574 C193.87231437 156.76165438 185.89680965 123.89045314 178 91 C173.79960396 105.69464914 170.06546289 120.49352692 166.37890625 135.32421875 C165.75048319 137.84420254 165.12181102 140.36412421 164.49290466 142.88398743 C163.01461815 148.80899654 161.53826166 154.73448297 160.0630607 160.66026098 C157.27422639 171.86276597 154.48205597 183.06443799 151.68784904 194.26560402 C150.78174351 197.90006139 149.87729399 201.53492774 148.97303772 205.16984558 C146.23477395 216.16469312 143.47195304 227.15303989 140.64038086 238.12426758 C140.3885608 239.10918277 140.13674074 240.09409796 139.87728977 241.10885906 C139.64477984 242.00350274 139.41226992 242.89814642 139.17271423 243.81990051 C138.86799902 244.99974628 138.86799902 244.99974628 138.55712795 246.20342731 C138 248 138 248 137 249 C134.69946165 249.09443335 132.39597827 249.11742128 130.09350586 249.11352539 C129.37159561 249.11367142 128.64968536 249.11381744 127.90589905 249.1139679 C125.50885053 249.11326869 123.11187877 249.10547595 120.71484375 249.09765625 C119.05717511 249.0957921 117.39950593 249.09436818 115.74183655 249.09336853 C111.37045786 249.08954312 106.99911219 249.07971265 102.62774658 249.06866455 C98.17045539 249.05845092 93.71315889 249.05387101 89.25585938 249.04882812 C80.50389107 249.0380904 71.75194964 249.02101371 63 249 C51.75318529 205.56410851 40.70915526 162.07876904 29.75482178 118.5682373 C23.96825735 95.58549921 18.17887315 72.60387776 12.26953125 49.65234375 C12.0519453 48.80719334 11.83435936 47.96204292 11.6101799 47.09128189 C9.60662507 39.31205591 7.59789347 31.53418509 5.58061695 23.75850582 C5.04478626 21.69226099 4.50986454 19.62578316 3.9752655 17.55921936 C3.33738414 15.0948216 2.69747928 12.63094632 2.05513 10.16770935 C1.7808165 9.10746048 1.50650299 8.04721161 1.22387695 6.95483398 C0.98554642 6.03846664 0.74721588 5.1220993 0.50166321 4.17796326 C0 2 0 2 0 0 Z " fill="#17437B" transform="translate(1489,1024)"/>
<path d="M0 0 C-4.10863549 11.95334456 -8.58002557 23.71834347 -13.3125 35.4375 C-13.95147681 37.02917449 -14.59014982 38.62097098 -15.22851562 40.21289062 C-15.83566407 41.72406822 -16.44307538 43.23514024 -17.05078125 44.74609375 C-17.4741552 45.79898842 -17.4741552 45.79898842 -17.90608215 46.87315369 C-19.88129502 51.76259003 -19.88129502 51.76259003 -21 54 C-21.63164062 53.81824219 -22.26328125 53.63648438 -22.9140625 53.44921875 C-56.87270861 43.90752424 -87.80862111 45.67579645 -119 63 C-123.308157 65.63112702 -127.18106685 68.70389698 -131 72 C-131.928125 72.76828125 -132.85625 73.5365625 -133.8125 74.328125 C-156.0165784 93.44830362 -167.12427211 120.33731738 -170 149 C-171.60504842 170.6932326 -165.47844456 191.2438964 -155 210 C-154.45601562 210.98613281 -153.91203125 211.97226563 -153.3515625 212.98828125 C-138.84505695 237.43705036 -113.66044203 253.52043587 -86.60864258 260.49121094 C-59.28497385 267.19647701 -30.05319228 262.24178107 -5.87670898 248.10253906 C-0.52846612 244.84192323 4.26829981 241.08683475 9 237 C9.74636719 236.39800781 10.49273438 235.79601563 11.26171875 235.17578125 C25.01693932 223.72510025 35.21493308 206.82928559 41 190 C47.29379156 190.62948825 52.95531793 192.46564191 58.9296875 194.4921875 C59.96062531 194.83879425 60.99156311 195.185401 62.05374146 195.54251099 C64.22149501 196.27395804 66.38813487 197.00871308 68.55371094 197.74658203 C71.88046082 198.87685533 75.21332694 199.9876181 78.546875 201.09765625 C80.65404617 201.81131904 82.76083133 202.52612282 84.8671875 203.2421875 C85.86813446 203.57354706 86.86908142 203.90490662 87.90036011 204.24630737 C88.81866608 204.56318512 89.73697205 204.88006287 90.68310547 205.20654297 C91.49472137 205.48110321 92.30633728 205.75566345 93.14254761 206.0385437 C95 207 95 207 96 210 C95.50610352 211.84667969 95.50610352 211.84667969 94.62890625 213.921875 C94.30623779 214.69241211 93.98356934 215.46294922 93.65112305 216.25683594 C93.11225464 217.49095215 93.11225464 217.49095215 92.5625 218.75 C92.01106323 220.02665527 92.01106323 220.02665527 91.44848633 221.32910156 C83.97814391 238.36499023 74.71389814 253.20838498 61.984375 266.86328125 C60.22693373 268.75564419 58.57573504 270.69255249 56.9375 272.6875 C53.63170801 276.55024607 49.92702336 279.78166132 46 283 C44.64648438 284.12728516 44.64648438 284.12728516 43.265625 285.27734375 C7.36219481 314.118551 -37.75009566 325.4168669 -83.16796875 320.75 C-126.25371438 315.65329774 -166.59115605 292.00602052 -193.46875 258.14990234 C-216.18863865 228.60369299 -228.47643604 193.1727908 -228.3125 155.875 C-228.31034485 155.20124329 -228.3081897 154.52748657 -228.30596924 153.83331299 C-228.10034121 113.53853894 -213.78147373 73.87191256 -186.07421875 44.23046875 C-184.17519913 42.18839681 -182.40162345 40.08548418 -180.625 37.9375 C-176.29148144 32.97636841 -171.18478426 29.03184289 -166 25 C-165.08347656 24.2678125 -164.16695312 23.535625 -163.22265625 22.78125 C-143.50685071 7.41968958 -121.22091081 -2.19996445 -97 -8 C-95.88117432 -8.26901123 -95.88117432 -8.26901123 -94.73974609 -8.54345703 C-64.16665068 -15.48530756 -28.8643552 -11.82871975 0 0 Z " fill="#ED1C24" transform="translate(2074,988)"/>
<path d="M0 0 C1.15298836 -0.00855011 1.15298836 -0.00855011 2.32926941 -0.01727295 C3.95379281 -0.02667554 5.57833487 -0.03323795 7.20288086 -0.03710938 C9.62324988 -0.04669784 12.04272452 -0.07771621 14.46289062 -0.109375 C29.11591211 -0.20982008 43.27976595 1.73806754 57.35546875 5.890625 C58.22582764 6.14481201 59.09618652 6.39899902 59.99291992 6.66088867 C83.0301502 13.65474477 103.9138601 25.77528127 121.5546875 42.09375 C123.62679515 43.99347518 125.75388006 45.78538881 127.91796875 47.578125 C132.8795947 51.91207538 136.82093522 57.01982205 140.85546875 62.203125 C141.93634766 63.54310547 141.93634766 63.54310547 143.0390625 64.91015625 C170.06096788 99.34983958 180.9674988 143.58272604 176.03100586 186.81933594 C173.64346135 204.96274747 168.63355776 221.65707242 160.85546875 238.203125 C160.33726562 239.30551514 160.33726562 239.30551514 159.80859375 240.43017578 C152.48605228 255.70027041 142.57524604 269.00381509 130.85546875 281.203125 C130.39092285 281.69876953 129.92637695 282.19441406 129.44775391 282.70507812 C102.59845599 311.28182844 62.85005256 330.90631665 23.35205078 332.3293457 C19.22745079 332.41013472 15.10574854 332.44919341 10.98046875 332.453125 C10.24725403 332.45413208 9.51403931 332.45513916 8.75860596 332.45617676 C-2.77023817 332.44548005 -13.88713424 331.83425915 -25.14453125 329.203125 C-25.8209668 329.0479541 -26.49740234 328.8927832 -27.19433594 328.73291016 C-35.37978347 326.8072689 -43.31292188 324.26412825 -51.14453125 321.203125 C-48.52089689 312.98843536 -45.40321658 304.98235308 -42.26953125 296.953125 C-41.48759994 294.94362471 -40.70627525 292.93389065 -39.92547607 290.9239502 C-39.41295462 289.60710143 -38.89869149 288.29092911 -38.38262939 286.97546387 C-37.13241198 283.78274912 -35.91199373 280.58445777 -34.75292969 277.35742188 C-34.32270508 276.17728516 -33.89248047 274.99714844 -33.44921875 273.78125 C-32.88823486 272.2019873 -32.88823486 272.2019873 -32.31591797 270.59082031 C-31.92936035 269.80288086 -31.54280273 269.01494141 -31.14453125 268.203125 C-27.17047512 266.87843962 -24.6760736 268.18789541 -20.89453125 269.515625 C5.53668607 278.23207976 34.37842459 275.01757805 59.10839844 262.73754883 C67.58280992 258.37854621 74.77862421 253.61494691 81.85546875 247.203125 C82.45875 246.74035156 83.06203125 246.27757812 83.68359375 245.80078125 C102.09963188 231.64452764 114.10387463 205.463552 117.54199219 182.97509766 C120.91064452 153.18718598 114.6694366 124.53492286 96.41796875 100.453125 C95.24367104 99.02549565 94.05572885 97.60899711 92.85546875 96.203125 C92.20191406 95.40519531 91.54835938 94.60726563 90.875 93.78515625 C73.21493742 73.03699529 46.77796412 60.78023956 19.85546875 58.203125 C-10.57830494 56.04806747 -39.51266533 65.77695528 -62.546875 85.76171875 C-76.09432498 97.98423475 -86.3671582 113.87100584 -92.14453125 131.203125 C-98.5307519 130.57580253 -104.27052982 128.66578583 -110.328125 126.60546875 C-111.91138329 126.07488609 -111.91138329 126.07488609 -113.52662659 125.53358459 C-116.88035655 124.40824199 -120.2311993 123.27456404 -123.58203125 122.140625 C-125.86244441 121.37379621 -128.14304148 120.60751408 -130.42382812 119.84179688 C-135.99954131 117.96856566 -141.57291084 116.08849234 -147.14453125 114.203125 C-142.62306846 83.59861028 -116.08742008 52.11027166 -92.14453125 34.203125 C-90.63246094 33.02556641 -90.63246094 33.02556641 -89.08984375 31.82421875 C-64.23297792 12.89169068 -31.43466296 0.18639203 0 0 Z " fill="#6D6E71" transform="translate(2229.14453125,986.796875)"/>
<path d="M0 0 C147.25466893 0 147.25466893 0 183 29 C183.85335938 29.68707031 184.70671875 30.37414063 185.5859375 31.08203125 C207.8176853 49.98252346 221.50555429 79.70945342 223.85498047 108.57861328 C226.10185913 146.09467813 219.27292821 180.45134796 194.23413086 209.47412109 C171.82326928 234.63450997 140.70848703 245.36572366 108 249 C72.36 249 36.72 249 0 249 C0 166.83 0 84.66 0 0 Z M62 53 C62 100.19 62 147.38 62 196 C106.90634904 197.09073206 106.90634904 197.09073206 143.6796875 176.4140625 C156.19942199 163.38848015 161.12338972 146.72396419 162 129 C162.04125 128.30003906 162.0825 127.60007812 162.125 126.87890625 C162.69338561 108.08665686 157.75476468 88.60400917 145.52734375 74.05859375 C133.7235833 61.57548018 119.67566881 55.77927814 103 53 C89.47 53 75.94 53 62 53 Z " fill="#17437B" transform="translate(1242,1024)"/>
<path d="M0 0 C115.42806703 0 115.42806703 0 132.375 4.125 C133.24584229 4.33672852 134.11668457 4.54845703 135.01391602 4.76660156 C154.87352113 9.87197234 171.67606188 19.46303869 187 33 C188.02480469 33.89912109 188.02480469 33.89912109 189.0703125 34.81640625 C209.73746329 54.18663057 221.92734156 83.66406154 223.1640625 111.72216797 C224.36035041 149.28968664 217.79193342 183.16044781 191.3828125 211.5390625 C168.06272818 235.62373974 139.63850596 244.92018675 107 249 C71.69 249 36.38 249 0 249 C0 166.83 0 84.66 0 0 Z M61 53 C61 100.19 61 147.38 61 196 C107.06543757 197.08051509 107.06543757 197.08051509 144 175 C144.57621094 174.43539063 145.15242188 173.87078125 145.74609375 173.2890625 C158.69417076 159.50020126 161.48520468 138.70204877 161.21484375 120.58203125 C160.65347119 104.19762334 156.22310739 88.99043623 146 76 C145.38382813 75.175 144.76765625 74.35 144.1328125 73.5 C133.06775439 60.52996851 118.12116717 56.7932158 102 53 C88.47 53 74.94 53 61 53 Z " fill="#17437B" transform="translate(2440,1024)"/>
<path d="M0 0 C145.31608133 0 145.31608133 0 170 22 C171.15822266 22.99966797 171.15822266 22.99966797 172.33984375 24.01953125 C183.97193275 34.73696026 192.17723127 51.94691597 193.17700195 67.80810547 C193.66961151 92.39933159 190.65925851 113.55442942 173 132 C163.87861495 140.73255158 151.966042 147.09272098 140 151 C144.20777956 158.80385124 148.55696347 166.51545459 153 174.1875 C153.65154053 175.31462402 154.30308105 176.44174805 154.97436523 177.60302734 C161.03262999 188.07858759 167.12952934 198.53159854 173.23535156 208.97949219 C176.30555249 214.23468393 179.37124491 219.49250535 182.4375 224.75 C183.54034468 226.64063661 184.64320858 228.53126201 185.74609375 230.421875 C186.27058105 231.32228516 186.79506836 232.22269531 187.33544922 233.15039062 C188.54097868 235.2141835 189.75159669 237.27500676 190.96533203 239.33398438 C191.60712402 240.42517578 192.24891602 241.51636719 192.91015625 242.640625 C193.50062744 243.64125977 194.09109863 244.64189453 194.69946289 245.67285156 C196 248 196 248 196 249 C172.9 249 149.8 249 126 249 C118 234.5 110 220 102 205.5 C100.69675781 203.1384375 99.39351562 200.776875 98.05078125 198.34375 C95.5872816 193.8793943 93.12598683 189.41383107 90.66671753 184.94714355 C89.19519517 182.27464188 87.72299027 179.60251648 86.25073242 176.93041992 C85.54954454 175.65733323 84.84869062 174.38406253 84.14819336 173.1105957 C83.17646639 171.34409712 82.2034927 169.57828451 81.23046875 167.8125 C80.67770264 166.80832031 80.12493652 165.80414062 79.55541992 164.76953125 C78.5109516 162.90978417 77.42403577 161.07330156 76.2980957 159.26171875 C75 157 75 157 75 155 C70.38 155 65.76 155 61 155 C61 186.02 61 217.04 61 249 C40.87 249 20.74 249 0 249 C0 166.83 0 84.66 0 0 Z M61 51 C61 71.13 61 91.26 61 112 C71.02375 112.0928125 71.02375 112.0928125 81.25 112.1875 C83.33344727 112.21481201 85.41689453 112.24212402 87.56347656 112.27026367 C106.55518683 112.52807902 106.55518683 112.52807902 123 104 C129.77426245 96.09165343 131.51044716 88.33008021 131.31640625 78.09765625 C130.52373946 70.33735055 127.71749693 63.33633047 122 58 C113.12081534 51.6929601 103.48769219 50.67731975 92.8359375 50.8046875 C91.6125769 50.80770874 91.6125769 50.80770874 90.36450195 50.81079102 C87.36794266 50.82111917 84.37146463 50.84903968 81.375 50.875 C74.65125 50.91625 67.9275 50.9575 61 51 Z " fill="#17437B" transform="translate(814,1024)"/>
<path d="M0 0 C50.49 0 100.98 0 153 0 C153 16.5 153 33 153 50 C122.64 50 92.28 50 61 50 C61 66.17 61 82.34 61 99 C87.73 99 114.46 99 142 99 C142 114.51 142 130.02 142 146 C115.27 146 88.54 146 61 146 C61 163.82 61 181.64 61 200 C91.36 200 121.72 200 153 200 C153 216.17 153 232.34 153 249 C102.51 249 52.02 249 0 249 C0 166.83 0 84.66 0 0 Z " fill="#17437B" transform="translate(1048,1024)"/>
<path d="M0 0 C11.38623839 9.57128911 19.0639913 23.34743582 20.50805664 38.23095703 C21.02913344 48.74477877 20.36451444 58.09990911 16.28515625 67.93359375 C15.95773438 68.78953125 15.6303125 69.64546875 15.29296875 70.52734375 C9.40387944 84.11093662 -3.0219551 94.44593662 -16.52734375 99.80859375 C-30.93957576 105.11004816 -47.92953908 104.69409306 -61.98046875 98.4921875 C-77.01538233 90.95724825 -87.71733535 79.35263786 -93.21484375 63.43359375 C-97.88640215 48.03475311 -96.60364437 31.65524545 -89.27734375 17.30859375 C-81.52716155 3.20264402 -69.38584908 -6.34027359 -54.10546875 -11.21875 C-34.33193379 -15.98636898 -16.12081558 -12.27037618 0 0 Z " fill="#ED1C24" transform="translate(2049.71484375,1098.06640625)"/>
<path d="M0 0 C13.26384903 9.81161435 22.18107108 23.06157419 25.1640625 39.359375 C27.31773211 55.89024445 23.5644504 71.53361772 13.8515625 85.109375 C8.08733984 91.95862781 1.81107154 97.04657585 -6.1484375 101.109375 C-6.89996094 101.49867187 -7.65148438 101.88796875 -8.42578125 102.2890625 C-22.2302324 108.93654864 -38.7641768 109.05671558 -53.1484375 104.109375 C-67.32416075 98.00570886 -79.24560059 87.87854165 -85.71875 73.66015625 C-91.31963688 59.36989343 -92.96130379 42.65201843 -87.4609375 27.984375 C-80.66651711 13.10135891 -70.60651379 0.94897857 -55.03125 -5.1015625 C-36.44590284 -11.50873597 -16.95205584 -10.69213225 0 0 Z " fill="#6D6E71" transform="translate(2272.1484375,1103.890625)"/>
<path d="M0 0 C1.02167804 -0.00865383 1.02167804 -0.00865383 2.06399605 -0.01748249 C4.35148866 -0.03074137 6.63722927 -0.00827192 8.92463207 0.01396656 C10.57887169 0.01178651 12.23310963 0.00740921 13.88733834 0.00102073 C18.4368917 -0.01017534 22.98585807 0.00986187 27.53533661 0.03491104 C32.43986165 0.05647431 37.34435276 0.04919853 42.24891186 0.04539967 C50.7476319 0.04277606 59.24616022 0.05848276 67.74483204 0.08658886 C80.032499 0.12719919 92.32007311 0.14024356 104.60779991 0.14652882 C124.54306831 0.15747587 144.47823449 0.19076124 164.41344738 0.23804188 C183.78030415 0.28392682 203.14713317 0.31932396 222.51403332 0.34058094 C223.70751793 0.34189456 224.90100254 0.34320818 226.13065336 0.3445616 C232.11792851 0.35108672 238.10520387 0.35740527 244.09247935 0.36362112 C293.77432842 0.41546692 343.45606395 0.50391471 393.13781261 0.61523914 C393.13781261 6.55523914 393.13781261 12.49523914 393.13781261 18.61523914 C342.26531428 18.72923175 291.39283211 18.81775112 240.52023115 18.87056579 C234.51816499 18.87681954 228.51609909 18.88329113 222.51403332 18.88989735 C220.72163178 18.89186467 220.72163178 18.89186467 218.89302012 18.89387175 C199.52911189 18.91564529 180.16527767 18.95507756 160.80141339 19.00100312 C140.94142593 19.04771351 121.0814773 19.07552307 101.22143716 19.08568162 C88.96060647 19.09255201 76.69998493 19.11427369 64.4392186 19.15482148 C56.03859002 19.18119297 47.63807001 19.18925284 39.23740301 19.18274603 C34.38612666 19.17953442 29.5352165 19.18455603 24.68400478 19.21126652 C20.24561686 19.23552631 15.80784277 19.23687437 11.36942711 19.21973362 C9.76099193 19.21761393 8.15251906 19.22401833 6.5441585 19.23965506 C4.36201592 19.25964226 2.1821063 19.2489612 0 19.23047829 C-1.81980968 19.23332619 -1.81980968 19.23332619 -3.6763832 19.23623163 C-7.77281108 18.43773593 -9.26207943 16.80344549 -11.86218739 13.61523914 C-12.52624989 11.55273914 -12.52624989 11.55273914 -12.48718739 9.61523914 C-12.50007801 8.97586414 -12.51296864 8.33648914 -12.52624989 7.67773914 C-10.52885234 1.47405736 -5.97547894 -0.0093513 0 0 Z " fill="#6D6E71" transform="translate(833.8621873855591,1428.3847608566284)"/>
<path d="M0 0 C50.8895305 -0.09118375 101.77905066 -0.16200424 152.6686468 -0.20426132 C158.67200165 -0.20926435 164.67535633 -0.21444162 170.67871094 -0.21972656 C171.8739076 -0.2207758 173.06910427 -0.22182505 174.30051902 -0.22290608 C193.67155516 -0.24032741 213.04254398 -0.2718746 232.41355202 -0.30861118 C252.27918638 -0.34597255 272.1447959 -0.36822567 292.01046395 -0.37635398 C304.27587109 -0.38185173 316.54114449 -0.39923692 328.80651048 -0.43166587 C337.20899228 -0.45275447 345.61140461 -0.4592129 354.01391098 -0.45400551 C358.86703693 -0.4514349 363.71992865 -0.45546877 368.57301331 -0.4768219 C373.01189543 -0.4962107 377.45038463 -0.49732028 381.8892844 -0.48359558 C383.49904324 -0.48189799 385.10882607 -0.48703714 386.7185373 -0.49953273 C388.89979821 -0.51548681 391.07962358 -0.50699683 393.26086044 -0.49219131 C395.08123971 -0.49446964 395.08123971 -0.49446964 396.93839431 -0.49679399 C400.60350955 0.09792898 401.74162067 1.11839821 404 4 C405.41000664 6.82001327 405.24548451 8.87007255 405 12 C402.73529412 16.63235294 402.73529412 16.63235294 400 18 C397.83736997 18.09547653 395.67169257 18.12372473 393.5069561 18.12304783 C392.49047036 18.1247786 392.49047036 18.1247786 391.45344955 18.12654433 C389.16025695 18.12921199 386.86713319 18.1246876 384.57394409 18.12025452 C382.92229767 18.12069019 381.27065131 18.12156502 379.61900532 18.12284368 C375.06288574 18.12508945 370.50678947 18.12106624 365.95067286 18.11606562 C361.04405004 18.11176247 356.13742862 18.11320745 351.23080444 18.1139679 C342.72392335 18.11449322 334.21704991 18.11134556 325.71017075 18.10573006 C313.41052636 18.09761616 301.11088568 18.09499995 288.8112389 18.09374207 C268.85771837 18.09155137 248.90420191 18.08489081 228.95068359 18.07543945 C209.56331401 18.06626579 190.17594553 18.05918473 170.78857422 18.05493164 C168.99716504 18.05453756 168.99716504 18.05453756 167.16956578 18.05413551 C161.17847856 18.05283051 155.18739132 18.05156679 149.19630408 18.05032361 C99.46419988 18.03995045 49.7321002 18.02225753 0 18 C0 12.06 0 6.12 0 0 Z " fill="#6D6E71" transform="translate(2285,1429)"/>
<path d="M0 0 C9 0 9 0 11.13671875 1.6328125 C11.64847656 2.45523437 12.16023438 3.27765625 12.6875 4.125 C13.32945313 5.11628906 13.97140625 6.10757812 14.6328125 7.12890625 C14.99407227 7.72074707 15.35533203 8.31258789 15.72753906 8.92236328 C17.24200425 11.3951374 18.80329013 13.83553716 20.3671875 16.27734375 C22.19296832 19.12992957 24.01373892 21.98475155 25.81323242 24.85400391 C26.38146729 25.75940918 26.94970215 26.66481445 27.53515625 27.59765625 C28.034104 28.39695557 28.53305176 29.19625488 29.04711914 30.01977539 C31.92793605 34.41609143 34.98581838 38.69402626 38 43 C38.33 28.81 38.66 14.62 39 0 C41.97 0 44.94 0 48 0 C48 19.8 48 39.6 48 60 C39 60 39 60 36.71826172 58.12109375 C36.16928223 57.23550781 35.62030273 56.34992188 35.0546875 55.4375 C34.40467773 54.43203125 33.75466797 53.4265625 33.08496094 52.390625 C32.39692383 51.27171875 31.70888672 50.1528125 31 49 C30.21395682 47.80379346 29.42244515 46.61116545 28.62597656 45.421875 C26.09292687 41.63558765 23.607005 37.81987091 21.125 34 C20.26328836 32.67821097 19.40131054 31.35659543 18.5390625 30.03515625 C16.97246312 27.63388672 15.40757369 25.23152053 13.84423828 22.828125 C12.57302409 20.87872796 11.29093101 18.93639651 10 17 C9.67 31.19 9.34 45.38 9 60 C6.03 60 3.06 60 0 60 C0 40.2 0 20.4 0 0 Z " fill="#17437B" transform="translate(1648,1404)"/>
<path d="M0 0 C3.85922687 3.12339051 6.582532 6.81920291 8.6875 11.3125 C8.6875 11.9725 8.6875 12.6325 8.6875 13.3125 C5.28592941 13.66916954 2.07761598 13.82884074 -1.3125 13.3125 C-4.125 10.5 -4.125 10.5 -6.3125 7.3125 C-11.57941098 3.58712394 -15.89271299 2.8845142 -22.3125 3.3125 C-29.08386724 4.94741186 -33.10683147 8.08277108 -37.0625 13.875 C-40.28286577 20.15471326 -40.1045091 27.21746589 -38.3125 33.9375 C-36.34426614 39.16476295 -33.06800151 42.45919909 -28.3125 45.3125 C-21.90602242 47.80505237 -15.70347569 47.85171683 -9.3125 45.3125 C-2.57233412 41.24296588 -2.57916961 38.47917403 0.6875 30.3125 C-6.9025 29.9825 -14.4925 29.6525 -22.3125 29.3125 C-22.3125 27.0025 -22.3125 24.6925 -22.3125 22.3125 C-11.4225 22.3125 -0.5325 22.3125 10.6875 22.3125 C10.6875 33.38040127 9.45475686 40.52230539 1.703125 48.55078125 C-5.77580133 55.08759476 -13.44736271 56.37368855 -23.109375 55.8515625 C-31.39300932 55.03069557 -37.99100354 51.36435033 -43.375 45.0625 C-49.06980963 36.77030159 -50.63615326 27.57053202 -48.84375 17.7421875 C-46.48584832 8.56321311 -41.64039893 2.44697626 -33.6015625 -2.5 C-22.90948635 -8.04674258 -9.84470669 -6.79136721 0 0 Z " fill="#17437B" transform="translate(1893.3125,1408.6875)"/>
<path d="M0 0 C4.60940288 3.606885 7.99920535 7.97286539 9.1875 13.75 C5.4365432 14.17048092 1.92479891 14.35128526 -1.8125 13.75 C-3.7433892 12.17824774 -4.93158057 10.53359909 -6.37109375 8.51171875 C-8.90633664 5.41308855 -11.9393104 4.40124427 -15.8125 3.75 C-22.49616631 3.50867453 -27.40379416 4.8557318 -32.8125 8.75 C-38.5252849 14.77158408 -39.26584505 20.38808802 -39.12890625 28.44921875 C-38.54863984 34.50261529 -36.6656073 38.94322038 -32.3125 43.1875 C-31.075 43.9609375 -31.075 43.9609375 -29.8125 44.75 C-29.214375 45.141875 -28.61625 45.53375 -28 45.9375 C-20.41850243 48.75348481 -14.41141069 47.46122258 -7.125 44.75 C-2.7340939 40.95245959 -0.62166378 35.17749135 1.1875 29.75 C-6.4025 29.75 -13.9925 29.75 -21.8125 29.75 C-21.8125 27.44 -21.8125 25.13 -21.8125 22.75 C-11.2525 22.75 -0.6925 22.75 10.1875 22.75 C10.1875 34.09230246 9.92449837 40.89028509 1.99609375 48.98828125 C-6.47837791 55.91411849 -15.21657472 56.64300838 -25.80224609 55.97949219 C-33.74321228 55.07294516 -39.31054495 50.12235875 -44.18359375 44.1171875 C-49.67685151 36.13417981 -49.71725523 27.19852332 -48.8125 17.75 C-46.94863746 10.12813355 -41.93351183 3.3089642 -35.27734375 -0.82421875 C-23.7639207 -6.74201646 -11.2008689 -7.34602441 0 0 Z " fill="#17437B" transform="translate(1770.8125,1408.25)"/>
<path d="M0 0 C31.55 0 31.55 0 37.875 5.5 C41.22325818 9.43912727 41.28295378 12.83343948 41.21875 17.78515625 C40.72688413 22.76529821 37.51152885 25.73064556 34 29 C34.94875 29.7425 35.8975 30.485 36.875 31.25 C40.2610376 33.89994247 41.77651025 36.27964865 42.3359375 40.5859375 C42.41974948 46.57011297 42.25612393 50.40786629 38 55 C26.34309936 63.98552758 16.59812206 60 0 60 C0 40.2 0 20.4 0 0 Z M9 7 C9 12.94 9 18.88 9 25 C13.08375 25.061875 13.08375 25.061875 17.25 25.125 C18.10110352 25.14320801 18.95220703 25.16141602 19.82910156 25.18017578 C25.23020408 25.29181777 25.23020408 25.29181777 30 23 C32.50031654 19.24952518 32.53603554 17.44143734 32 13 C29.45862841 9.84045695 27.85377341 8.28459114 24 7 C21.42502932 6.92964561 18.88550071 6.9065066 16.3125 6.9375 C13.899375 6.958125 11.48625 6.97875 9 7 Z M9 33 C9 39.6 9 46.2 9 53 C20.52688999 53.8281886 20.52688999 53.8281886 31 50 C33.32070159 46.73651339 34.01753108 44.87655386 33.9375 40.875 C32.85994063 37.5704846 31.70451449 36.14770268 29 34 C26.29283758 33.09761253 24.76223232 32.88148698 21.98828125 32.90234375 C21.30548096 32.90484131 20.62268066 32.90733887 19.91918945 32.90991211 C19.05898193 32.91901611 18.19877441 32.92812012 17.3125 32.9375 C14.569375 32.958125 11.82625 32.97875 9 33 Z " fill="#17437B" transform="translate(2067,1404)"/>
<path d="M0 0 C9 0 9 0 11.49951172 2.20874023 C12.13646973 3.23169189 12.77342773 4.25464355 13.4296875 5.30859375 C13.97074631 6.14705589 13.97074631 6.14705589 14.5227356 7.00245667 C15.67097685 8.79669414 16.7728968 10.61464167 17.875 12.4375 C18.60512613 13.59626303 19.33818263 14.75318505 20.07421875 15.90820312 C22.40471904 19.59169964 24.70169698 23.29632866 27 27 C30.63 32.61 34.26 38.22 38 44 C38.33 29.48 38.66 14.96 39 0 C41.64 0 44.28 0 47 0 C47 19.8 47 39.6 47 60 C44.03 60 41.06 60 38 60 C35.50422074 57.47788216 34.03565676 55.59734037 32.265625 52.625 C31.77970886 51.86711182 31.29379272 51.10922363 30.79315186 50.32836914 C29.24815627 47.90340728 27.74924962 45.45344898 26.25 43 C25.22818148 41.37966465 24.20346838 39.76115084 23.17578125 38.14453125 C20.89486836 34.54280874 18.64230189 30.9251835 16.41387939 27.29077148 C14.29094859 23.85119286 12.14224079 20.42758526 10 17 C9.67 31.19 9.34 45.38 9 60 C6.03 60 3.06 60 0 60 C0 40.2 0 20.4 0 0 Z " fill="#17437B" transform="translate(1534,1404)"/>
<path d="M0 0 C6.64775679 5.43907373 11.31316436 11.62898618 12.75 20.25 C13.64389566 30.47851096 12.11360415 39.43371249 5.625 47.625 C-0.82303568 54.29207723 -8.19909139 56.92918696 -17.36328125 57.31640625 C-26.1065167 57.11527634 -32.79834984 54.4161736 -39.19921875 48.42578125 C-46.20568111 40.94928368 -47.72910681 34.38292339 -47.67651367 24.26049805 C-47.40152655 16.19137425 -45.03547353 9.03547353 -39.25 3.25 C-27.92357782 -6.86179245 -12.96287934 -6.98001195 0 0 Z M-35.0234375 12.37109375 C-39.25446106 18.85237506 -38.92032648 25.75761669 -38.25 33.25 C-36.60345968 39.51079704 -32.5573362 43.71951815 -27.25 47.25 C-21.92513208 49.74249137 -16.53904277 50.21801259 -10.9140625 48.5625 C-4.30891415 45.92921827 -0.34658657 42.11799923 2.5625 35.5625 C4.77441604 28.90132756 4.74437951 21.98399322 2.1875 15.4375 C-0.51518745 10.08962909 -4.4897341 6.89123918 -9.5625 3.875 C-20.21763132 1.39706248 -28.09525734 4.03018412 -35.0234375 12.37109375 Z " fill="#17437B" transform="translate(2028.25,1407.75)"/>
<path d="M0 0 C27 0 27 0 35 4 C39.92362197 9.1331378 41.32329531 12.73500881 41.2109375 19.65625 C40.75122035 24.76421835 38.85489841 28.51464697 35.0625 31.875 C32.38050239 33.73597793 31.05417914 34.37992907 28 35 C28.42410156 35.72179443 28.84820313 36.44358887 29.28515625 37.18725586 C30.85232022 39.85681636 32.41754479 42.5275012 33.98144531 45.19897461 C34.99393754 46.92715225 36.00868103 48.65401029 37.0234375 50.38085938 C37.65507813 51.46044922 38.28671875 52.54003906 38.9375 53.65234375 C39.52402344 54.65257568 40.11054687 55.65280762 40.71484375 56.68334961 C42 59 42 59 42 60 C38.1485081 60.68375879 34.82909861 60.89498017 31 60 C27.71440265 56.86302784 25.85403441 53.14824363 23.8125 49.125 C23.24208984 48.09246094 22.67167969 47.05992188 22.08398438 45.99609375 C18 38.49489796 18 38.49489796 18 36 C15.03 36 12.06 36 9 36 C9 43.92 9 51.84 9 60 C6.03 60 3.06 60 0 60 C0 40.2 0 20.4 0 0 Z M9 7 C9 14.26 9 21.52 9 29 C19.4990449 29.6141824 19.4990449 29.6141824 29 26 C31.23529288 23.62500132 31.93889521 22.06742425 32.125 18.81640625 C31.90487445 14.62714181 31.57668964 12.60704173 28.625 9.5 C22.37633568 5.92933467 16.04183543 6.93539601 9 7 Z " fill="#17437B" transform="translate(1465,1404)"/>
<path d="M0 0 C1.37478516 0.01740234 1.37478516 0.01740234 2.77734375 0.03515625 C3.69644531 0.04417969 4.61554688 0.05320312 5.5625 0.0625 C6.27277344 0.07410156 6.98304687 0.08570313 7.71484375 0.09765625 C10.51757812 7.70507812 13.3203125 15.3125 16.12304688 22.91992188 C16.57954117 24.15861526 16.57954117 24.15861526 17.04525757 25.42233276 C17.66212218 27.09716881 18.27835109 28.77223913 18.89395142 30.44754028 C20.49496697 34.80197293 22.10807131 39.1513393 23.74169922 43.49365234 C24.0668602 44.36269699 24.39202118 45.23174164 24.72703552 46.12712097 C25.34875856 47.78788718 25.97428933 49.44723433 26.60414124 51.10493469 C28.71484375 56.76045007 28.71484375 56.76045007 28.71484375 60.09765625 C25.74484375 60.09765625 22.77484375 60.09765625 19.71484375 60.09765625 C17.23984375 54.15765625 17.23984375 54.15765625 14.71484375 48.09765625 C6.46484375 47.76765625 -1.78515625 47.43765625 -10.28515625 47.09765625 C-10.78015625 49.57265625 -10.78015625 49.57265625 -11.28515625 52.09765625 C-12.19673324 54.80404802 -13.24730596 57.43534464 -14.28515625 60.09765625 C-17.25515625 60.09765625 -20.22515625 60.09765625 -23.28515625 60.09765625 C-22.69980663 56.06084635 -21.82133417 52.40378116 -20.44335938 48.56713867 C-20.06626831 47.5097197 -19.68917725 46.45230072 -19.30065918 45.36283875 C-18.89335571 44.23763321 -18.48605225 43.11242767 -18.06640625 41.953125 C-17.4394989 40.20483147 -17.4394989 40.20483147 -16.79992676 38.42121887 C-15.69274526 35.33783002 -14.58086339 32.25618731 -13.46710205 29.1751709 C-12.33209745 26.02950255 -11.20593715 22.88067572 -10.078125 19.73242188 C-9.22055418 17.34747565 -8.3624982 14.96270381 -7.50390625 12.578125 C-6.89295105 10.87513496 -6.89295105 10.87513496 -6.26965332 9.13774109 C-5.70401672 7.57525383 -5.70401672 7.57525383 -5.12695312 5.98120117 C-4.79465698 5.05997971 -4.46236084 4.13875824 -4.11999512 3.18962097 C-2.89651319 0.12378262 -2.89651319 0.12378262 0 0 Z M1.71484375 13.09765625 C0.20969729 17.22079683 -1.28839997 21.34646327 -2.78515625 25.47265625 C-3.42904297 27.23609375 -3.42904297 27.23609375 -4.0859375 29.03515625 C-4.49199219 30.15664062 -4.89804688 31.278125 -5.31640625 32.43359375 C-5.69345703 33.4704834 -6.07050781 34.50737305 -6.45898438 35.57568359 C-7.38892658 37.97211771 -7.38892658 37.97211771 -7.28515625 40.09765625 C-0.68515625 40.09765625 5.91484375 40.09765625 12.71484375 40.09765625 C11.2653541 35.78199468 9.80576465 31.47023351 8.33984375 27.16015625 C7.72109375 25.31260742 7.72109375 25.31260742 7.08984375 23.42773438 C6.69023438 22.25791016 6.290625 21.08808594 5.87890625 19.8828125 C5.5123291 18.7987915 5.14575195 17.71477051 4.76806641 16.59790039 C3.9746002 13.95642388 3.9746002 13.95642388 1.71484375 13.09765625 Z " fill="#17437B" transform="translate(1411.28515625,1403.90234375)"/>
<path d="M0 0 C1.37478516 0.01740234 1.37478516 0.01740234 2.77734375 0.03515625 C3.69644531 0.04417969 4.61554687 0.05320312 5.5625 0.0625 C6.27277344 0.07410156 6.98304688 0.08570313 7.71484375 0.09765625 C10.45666224 7.62401307 13.19504705 15.15160626 15.92902374 22.68081474 C17.19854572 26.17666421 18.4692584 29.67207132 19.74267578 33.16650391 C20.97091885 36.53710707 22.19605555 39.90882411 23.41902161 43.28134537 C23.88679412 44.56958535 24.35569574 45.85741591 24.82572937 47.14483261 C25.48248591 48.9442719 26.1349043 50.74529276 26.78710938 52.54638672 C27.16017212 53.57230927 27.53323486 54.59823181 27.91760254 55.65524292 C28.71484375 58.09765625 28.71484375 58.09765625 28.71484375 60.09765625 C25.41484375 60.09765625 22.11484375 60.09765625 18.71484375 60.09765625 C18.04426488 58.30745015 17.37849685 56.51544136 16.71484375 54.72265625 C16.34359375 53.72492188 15.97234375 52.7271875 15.58984375 51.69921875 C14.71484375 49.09765625 14.71484375 49.09765625 14.71484375 47.09765625 C6.46484375 47.09765625 -1.78515625 47.09765625 -10.28515625 47.09765625 C-11.27515625 50.39765625 -12.26515625 53.69765625 -13.28515625 57.09765625 C-13.61515625 58.08765625 -13.94515625 59.07765625 -14.28515625 60.09765625 C-17.58515625 60.09765625 -20.88515625 60.09765625 -24.28515625 60.09765625 C-22.15940203 52.76233671 -19.73203592 45.60153872 -17.08984375 38.4375 C-16.69693146 37.36641495 -16.30401917 36.2953299 -15.89920044 35.19178772 C-15.07536531 32.94836976 -14.25005844 30.70549175 -13.42333984 28.46313477 C-12.15288163 25.01541466 -10.88865348 21.56545356 -9.625 18.11523438 C-8.82198351 15.93085392 -8.01861103 13.7466043 -7.21484375 11.5625 C-6.83568817 10.52721664 -6.45653259 9.49193329 -6.06588745 8.42527771 C-5.71527252 7.47661331 -5.36465759 6.52794891 -5.00341797 5.55053711 C-4.54066971 4.29339149 -4.54066971 4.29339149 -4.068573 3.010849 C-2.88619256 0.12334156 -2.88619256 0.12334156 0 0 Z M1.71484375 12.09765625 C0.20707759 16.1990119 -1.29003201 20.30417692 -2.78515625 24.41015625 C-3.21441406 25.57740234 -3.64367188 26.74464844 -4.0859375 27.94726562 C-4.49199219 29.06552734 -4.89804688 30.18378906 -5.31640625 31.3359375 C-5.69345703 32.36759033 -6.07050781 33.39924316 -6.45898438 34.4621582 C-7.43471899 37.11443687 -7.43471899 37.11443687 -7.28515625 40.09765625 C-1.01515625 40.09765625 5.25484375 40.09765625 11.71484375 40.09765625 C11.00268732 35.82471769 10.32943711 32.64497166 8.8671875 28.69921875 C8.50947266 27.72597656 8.15175781 26.75273438 7.78320312 25.75 C7.41001953 24.75097656 7.03683594 23.75195312 6.65234375 22.72265625 C6.27529297 21.70042969 5.89824219 20.67820312 5.50976562 19.625 C4.58284274 17.11409498 3.65107928 14.60510051 2.71484375 12.09765625 C2.38484375 12.09765625 2.05484375 12.09765625 1.71484375 12.09765625 Z " fill="#17437B" transform="translate(2156.28515625,1403.90234375)"/>
<path d="M0 0 C10.89 0 21.78 0 33 0 C33 2.31 33 4.62 33 7 C25.08 7 17.16 7 9 7 C9 13.27 9 19.54 9 26 C15.93 26 22.86 26 30 26 C30 28.31 30 30.62 30 33 C23.07 33 16.14 33 9 33 C9 39.6 9 46.2 9 53 C16.92 53 24.84 53 33 53 C33 55.31 33 57.62 33 60 C22.11 60 11.22 60 0 60 C0 40.2 0 20.4 0 0 Z " fill="#17437B" transform="translate(1331,1404)"/>
<path d="M0 0 C2.97 0 5.94 0 9 0 C9 17.49 9 34.98 9 53 C15.93 53 22.86 53 30 53 C30 55.31 30 57.62 30 60 C20.1 60 10.2 60 0 60 C0 40.2 0 20.4 0 0 Z " fill="#17437B" transform="translate(1277,1404)"/>
<path d="M0 0 C2.97 0 5.94 0 9 0 C9 17.49 9 34.98 9 53 C15.6 53 22.2 53 29 53 C29 55.31 29 57.62 29 60 C19.43 60 9.86 60 0 60 C0 40.2 0 20.4 0 0 Z " fill="#17437B" transform="translate(2210,1404)"/>
<path d="M0 0 C2.97 0 5.94 0 9 0 C9 17.49 9 34.98 9 53 C15.6 53 22.2 53 29 53 C29 55.31 29 57.62 29 60 C19.43 60 9.86 60 0 60 C0 40.2 0 20.4 0 0 Z " fill="#17437B" transform="translate(1930,1404)"/>
<path d="M0 0 C2.97 0 5.94 0 9 0 C9 19.8 9 39.6 9 60 C6.03 60 3.06 60 0 60 C0 40.2 0 20.4 0 0 Z " fill="#17437B" transform="translate(1610,1404)"/>
</svg>
